<?xml version="1.0" encoding="UTF-8"?>
<!-- Created with Inkscape (http://www.inkscape.org/) -->
<svg width="14" height="14" version="1.1" xmlns="http://www.w3.org/2000/svg" xmlns:cc="http://creativecommons.org/ns#" xmlns:dc="http://purl.org/dc/elements/1.1/" xmlns:rdf="http://www.w3.org/1999/02/22-rdf-syntax-ns#">
 <metadata>
  <rdf:RDF>
   <cc:Work rdf:about="">
    <dc:format>image/svg+xml</dc:format>
    <dc:type rdf:resource="http://purl.org/dc/dcmitype/StillImage"/>
   </cc:Work>
  </rdf:RDF>
 </metadata>
 <g transform="translate(-48 78.638)">
  <rect x="48" y="-78.638" width="16" height="16" ry="1.6931e-5" opacity="0" stroke-width=".47432" style="paint-order:markers stroke fill"/>
  <path d="m52.172-74.466c-0.39174 0.3917-0.39174 1.0224 0 1.4142l1.4142 1.4142-1.4142 1.4142c-0.39174 0.3918-0.39174 1.0225 0 1.4142 0.39174 0.3918 1.0225 0.3918 1.4142 0l1.4142-1.4142 1.4142 1.4142c0.39174 0.3918 1.0225 0.3918 1.4142 0 0.39174-0.3917 0.39174-1.0224 0-1.4142l-1.4142-1.4142 1.4142-1.4142c0.39174-0.3918 0.39174-1.0225 0-1.4142-0.39174-0.3918-1.0225-0.3918-1.4142 0l-1.4142 1.4142-1.4142-1.4142c-0.39174-0.3918-1.0225-0.3918-1.4142 0z" enable-background="new"/>
 </g>
</svg>
