<?xml version="1.0" encoding="UTF-8"?>
<svg width="16" height="16" version="1.1" viewBox="0 0 16 16" xml:space="preserve" xmlns="http://www.w3.org/2000/svg"><g><g transform="matrix(1.0001 0 0 .99998 .0859 0)" fill="context-fill" stroke="context-stroke" fill-opacity="context-fill-opacity" stroke-opacity="context-stroke-opacity" stroke-linejoin="bevel" stroke-width="1.0109"><path d="m10.335 0c-0.21724 0.08481-0.60247 0.3639-0.80779 0.54879-1.6745 1.6641-1.5334 2.5767-1.9635 3.7018-0.47218 0.079241-1.201 0.43413-1.618 0.66717-0.29288 0.12709-0.37734-0.55034-0.42483-1.1914l-0.00596-0.76675c-0.6974 0.22534-1.4281 0.62788-1.9276 1.0903-0.20723-0.43346-0.28093-0.9948-0.20612-1.6968-0.7874 0.44768-1.4816 1.197-1.9377 1.8007-0.50869 0.7241-0.78954 1.3644-1.0455 2.2164-0.25975 0.89721-0.32202 1.7852-0.21908 2.701 0.10919 2.4118 2.6536 6.9775 7.8305 6.9288 4.4547-0.038592 7.0867-3.3492 7.604-6.3293 0.21706-1.5257-0.021692-3.122-0.49625-4.3026-0.36984-0.86994-1.0927-1.68-1.5899-1.9915 0.20282 0.41305 0.46732 1.1165 0.45698 1.6352-0.59739-1.2112-2.3786-2.9515-3.1244-3.9748-0.33583-0.48731-0.39643-0.72434-0.52481-1.0371zm3.3112 6.0673c0.17636 0.40174 0.20586 0.57593 0.28399 1.1806 0.19793-0.31885 0.52152-0.90002 0.56098-1.3622 0.27278 1.2896 0.32263 2.3987 0.102 3.5662-0.83436 3.0983-3.0772 5.3256-6.6362 5.5542-3.2273-0.14255-6.4998-2.622-6.8561-6.4194-0.048352-0.75366-0.050998-0.99575 0.10781-1.6747 0.19864-0.85864 0.38058-1.2774 0.78482-1.9816 0.25408-0.38125 0.38053-0.60738 0.81612-1.0656 0.088352 0.60173 0.34222 0.98376 0.62512 1.3565 0.38546-0.57602 0.83274-0.98911 1.4404-1.2449-0.01613 0.40062 0.12356 0.94217 0.22359 1.268 0.13456 0.25474 0.29109 0.57967 0.55412 0.57626l0.22732-0.43972c0.49967-0.39423 1.2817-0.50753 1.9159-0.55099l0.74242-0.087395c0.13594-1.4158 0.78892-2.8711 1.5732-3.5028 0.61174 1.1991 2.7215 3.1265 3.5344 4.8277z" color="#000000" stroke-miterlimit="8.7" style="-inkscape-stroke:none"/><path d="m7.768 4.17c-0.8367 0.058096-1.6799 0.19718-2.3385 0.71728l-0.057226 0.78879c0.48256 0.59265 2.14 1.1086 2.0438 1.2734-0.050135 0.11774-0.14788 0.20673-0.28238 0.28269-0.54254-0.0029-1.4971 0.14762-2.144 0.56454-0.39286 0.2544-0.75193 0.61111-0.71673 1.1888 0.16855 1.6784 1.6203 2.858 3.4273 3.037 2.036 0.09479 3.334-1.1177 3.6265-2.6122 0.18874-0.96467-0.12934-2.4544-0.76358-3.2234 0.32751 0.025228 0.46647 0.053544 0.98737 0.2313-0.89007-1.4136-2.4254-2.1791-3.7826-2.2482zm2.2468 1.4891c-0.35769-0.04326-0.70103-0.047038-1.15 0.00955 1.0056 0.50175 1.9423 2.1896 1.6583 3.5187-0.25634 1.0798-1.1459 2.1211-2.7618 2.0451-1.4325-0.11411-2.7177-1.4065-2.712-2.2838-0.06174-0.80451 1.331-1.0263 2.0384-1.0341 0.48151-0.088246 0.77106-0.5174 0.93446-0.76887 0.50465-0.82173-1.4038-0.93877-2.0183-1.7964 1.3078-0.67763 2.8573-0.50023 4.0109 0.30972z" color="#000000" style="-inkscape-stroke:none"/></g></g></svg>
