<?xml version="1.0" encoding="UTF-8"?>
<svg width="16" height="16" version="1.1" viewBox="0 0 16 16" xml:space="preserve" xmlns="http://www.w3.org/2000/svg"><g><g transform="matrix(1 0 0 1 .069908 0)" fill="context-fill" stroke="context-stroke" fill-opacity="context-fill-opacity" stroke-opacity="context-stroke-opacity" stroke-linejoin="bevel" stroke-width="1.0109"><path d="m10.435 0c-0.21724 0.08481-0.61497 0.38877-0.82028 0.57365-1.6745 1.6641-1.6205 2.5518-2.0506 3.6769-0.47218 0.079241-1.2149 0.28622-1.6319 0.51927-0.29288 0.12709-0.36341-0.40243-0.4109-1.0435l-0.00596-0.76675c-0.6974 0.22534-1.5921 0.6313-2.0916 1.0938-0.20584-0.38134-0.18593-1.022-0.042109-1.7002-0.59438 0.33518-0.92871 0.69728-1.1876 0.97036-0.30709 0.32392-0.49345 0.53655-0.71504 0.85197-0.50869 0.7241-0.82465 1.3428-1.0806 2.1948-0.25975 0.89721-0.32202 1.7852-0.21908 2.701 0.10919 2.4118 2.6536 6.9775 7.8305 6.9288 4.4547-0.038592 7.1044-3.3424 7.6217-6.3225 0.21706-1.5257 0.060786-3.1287-0.41377-4.3093-0.36984-0.86994-1.0932-1.68-1.5904-1.9915 0.20282 0.41305 0.5987 1.1627 0.55801 1.6352-0.59739-1.2112-2.4407-2.9581-3.1865-3.9814-0.33583-0.48731-0.43535-0.71765-0.56373-1.0304zm3.412 6.0673c0.17636 0.40174 0.23863 0.53442 0.28351 1.1806 0.19793-0.31885 0.46973-0.865 0.46152-1.3622 0.27278 1.2896 0.32244 2.3987 0.10181 3.5662-0.83436 3.0983-3.1775 5.3256-6.7365 5.5542-3.7652-0.3515-6.4998-2.622-6.8561-6.4194-0.048352-0.75366-0.050998-0.99575 0.10781-1.6747 0.19864-0.85864 0.38058-1.2774 0.78482-1.9816 0.25408-0.38125 0.26863-0.48055 0.70422-0.93882 0.035024 0.5772 0.25651 0.93476 0.55893 1.3099 0.42233-0.56901 0.78165-0.90919 1.6185-1.3251-0.01613 0.40062 0.12356 0.94217 0.22359 1.268 0.13456 0.25474 0.29109 0.57967 0.55412 0.57626l0.28931-0.32795c0.49967-0.39423 1.2197-0.61931 1.8539-0.66277l0.74242-0.087395c0.13594-1.4158 0.84696-2.8211 1.6313-3.4528 0.61174 1.1991 2.8639 3.0765 3.6768 4.7777z" color="#000000" stroke-miterlimit="8.7" style="-inkscape-stroke:none"/><path d="m7.768 4.17c-0.8367 0.058096-1.6799 0.19718-2.3385 0.71728l-0.057226 0.78879c0.098413 0.1038 0.19338 0.21733 0.542 0.43598 0.54163 0.34607 1.0694 0.56574 1.4305 0.82632-0.080846 0.082155-0.043973 0.1299-0.21105 0.24369-0.54254-0.0029-1.5716 0.099584-2.2185 0.5165-0.39286 0.2544-0.61015 0.71222-0.61845 1.288 0.18021 1.2614 0.75701 2.0673 1.9593 2.7055 0.51387 0.26001 0.92 0.28893 1.4443 0.3304 2.036 0.09479 3.2747-1.1304 3.6265-2.6121 0.22142-0.93261-0.05159-1.9946-0.57315-2.8211 0.05741-0.21071 0.70622-0.31079 1.1062-0.43881-0.20487-0.15805-0.21994-0.17297-0.32363-0.25989-0.47708-0.43522-2.3961-1.6929-3.7683-1.7205zm0.2202 0.75829c0.63352 0.043037 1.4506 0.34916 1.9296 0.64015-0.097585 0.00558-0.93697 0.13792-1.037 0.15535 0.73618 0.51913 1.8695 2.1781 1.5856 3.5072-0.25634 1.0798-1.0891 1.9774-2.705 1.9014-0.423 0.011176-0.75075-0.11219-1.082-0.27439h-0.00197c-0.73231-0.37986-1.3234-0.97689-1.437-1.7872-0.021085-0.12589-0.031403-0.44178 0.20964-0.63661 0.26531-0.21444 0.53197-0.44847 1.6892-0.46305 0.48151-0.088246 0.81161-0.60747 1.0562-0.86171 0.27839-0.51632-0.1093-0.47811-0.78824-0.9524-0.32889-0.20614-1.0009-0.58357-1.1421-0.76277 0.56955-0.34535 1.164-0.43002 1.7231-0.466z" color="#000000" style="-inkscape-stroke:none"/></g></g></svg>
